<?xml version="1.0" encoding="UTF-8" standalone="no"?>
<!-- Created with Inkscape (http://www.inkscape.org/) -->

<svg
   xmlns:dc="http://purl.org/dc/elements/1.1/"
   xmlns:cc="http://creativecommons.org/ns#"
   xmlns:rdf="http://www.w3.org/1999/02/22-rdf-syntax-ns#"
   xmlns:svg="http://www.w3.org/2000/svg"
   xmlns="http://www.w3.org/2000/svg"
   xmlns:sodipodi="http://sodipodi.sourceforge.net/DTD/sodipodi-0.dtd"
   xmlns:inkscape="http://www.inkscape.org/namespaces/inkscape"
   width="517.21875"
   height="484.875"
   id="svg2"
   version="1.1"
   inkscape:version="0.48.4 r9939"
   sodipodi:docname="logo.svg">
  <defs
     id="defs4">
    <inkscape:path-effect
       effect="skeletal"
       id="path-effect4082"
       is_visible="true"
       pattern="M 0,0 0,10 10,5 z"
       copytype="single_stretched"
       prop_scale="1"
       scale_y_rel="false"
       spacing="0"
       normal_offset="0"
       tang_offset="0"
       prop_units="false"
       vertical_pattern="false"
       fuse_tolerance="0" />
    <inkscape:path-effect
       effect="skeletal"
       id="path-effect3309"
       is_visible="true"
       pattern="M 0,0 0,10 10,5 z"
       copytype="single_stretched"
       prop_scale="1"
       scale_y_rel="false"
       spacing="0"
       normal_offset="0"
       tang_offset="0"
       prop_units="false"
       vertical_pattern="false"
       fuse_tolerance="0" />
    <inkscape:path-effect
       effect="skeletal"
       id="path-effect3243"
       is_visible="true"
       pattern="M 0,0 0,10 10,5 z"
       copytype="single_stretched"
       prop_scale="1"
       scale_y_rel="false"
       spacing="0"
       normal_offset="0"
       tang_offset="0"
       prop_units="false"
       vertical_pattern="false"
       fuse_tolerance="0" />
    <inkscape:perspective
       sodipodi:type="inkscape:persp3d"
       inkscape:vp_x="0 : 526.18109 : 1"
       inkscape:vp_y="0 : 1000 : 0"
       inkscape:vp_z="1401.2373 : 726.18109 : 1"
       inkscape:persp3d-origin="372.04724 : 350.78739 : 1"
       id="perspective2987" />
  </defs>
  <sodipodi:namedview
     id="base"
     pagecolor="#ffffff"
     bordercolor="#666666"
     borderopacity="1.0"
     inkscape:pageopacity="0.0"
     inkscape:pageshadow="2"
     inkscape:zoom="0.98994948"
     inkscape:cx="147.75784"
     inkscape:cy="283.05256"
     inkscape:document-units="px"
     inkscape:current-layer="layer1"
     showgrid="false"
     inkscape:snap-global="false"
     inkscape:window-width="1366"
     inkscape:window-height="734"
     inkscape:window-x="0"
     inkscape:window-y="16"
     inkscape:window-maximized="0"
     fit-margin-top="0"
     fit-margin-left="0"
     fit-margin-right="0"
     fit-margin-bottom="0" />
  <metadata
     id="metadata7">
    <rdf:RDF>
      <cc:Work
         rdf:about="">
        <dc:format>image/svg+xml</dc:format>
        <dc:type
           rdf:resource="http://purl.org/dc/dcmitype/StillImage" />
        <dc:title />
      </cc:Work>
    </rdf:RDF>
  </metadata>
  <g
     inkscape:label="Calque 1"
     inkscape:groupmode="layer"
     id="layer1"
     transform="translate(-145.45607,-252.31825)">
    <path
       style="fill:#ed1f24;fill-opacity:0.50248754;fill-rule:evenodd;stroke:none"
       d="M 488.92482,252.31825 343.45607,353.3495 165.67482,624.06825 l 40.40625,113.125 230.3125,-44.4375 129.28125,-355.59375 -76.75,-84.84375 z"
       id="path3307"
       inkscape:connector-curvature="0" />
    <path
       style="fill:#119e5d;fill-opacity:0.79104477;fill-rule:evenodd;stroke:none"
       d="m 650.54982,329.0995 -198,12.125 -274.75,141.40625 -32.34375,117.1875 230.3125,72.71875 286.90625,-226.28125 -12.125,-117.15625 z"
       id="path4080"
       inkscape:connector-curvature="0" />
    <path
       style="fill:#525252;fill-opacity:1;fill-rule:evenodd;stroke:none"
       d="m 563.19399,334.43839 -110.65625,6.78125 -152.75,78.625 -124.40625,189.40625 200.375,63.28125 95.3125,-75.15625 94.59375,-260.21875 -2.46875,-2.71875 z"
       id="path4092"
       inkscape:connector-curvature="0" />
    <g
       style="font-size:40px;font-style:normal;font-weight:normal;line-height:86.00000142999998332%;letter-spacing:0px;word-spacing:0px;fill:#ffffff;fill-opacity:1;stroke:none;font-family:Sans"
       id="text4097">
      <path
         d="m 197.75502,442.72858 0,5.31 10.8,0 0,32.13 c 0,3.42 0.09,7.47001 -1.98,10.53 -1.53,2.25 -3.96,3.6 -6.66,3.6 -4.67999,0 -8.19,-3.87 -8.46,-4.14 -0.36,-0.54 0,-1.17 -0.54,-1.62 l -4.14,5.13 c 3.33,3.96 8.10001,6.21 13.05,6.21 5.31,0 10.17,-2.61 12.78,-7.47 2.16,-4.04999 2.16,-8.28 2.16,-12.33 l 0,-32.04 8.64,0 0,-5.31 -25.65,0"
         style="font-size:90px;font-variant:normal;font-weight:bold;font-stretch:normal;text-align:center;line-height:86.00000142999998332%;text-anchor:middle;font-family:Inconsolata;-inkscape-font-specification:Inconsolata Bold;fill:#ffffff;fill-opacity:1"
         id="path3790" />
      <path
         d="m 232.13502,442.72858 0,56.16 12.06,0 c 4.41,0 8.19,-0.18 12.15,-2.25 8.00999,-4.13999 12.42,-13.68001 12.42,-25.92 0,-10.79999 -3.24001,-20.25 -10.44,-24.93 -4.05,-2.69999 -8.1,-3.06 -13.05,-3.06 l -13.14,0 m 5.94,5.4 6.84,0 c 3.51,0 7.02,0.18001 10.53,3.06 5.22,4.32 6.93,12.33001 6.93,20.34 0,10.70999 -3.51,16.83001 -8.01,19.89 -3.51,2.34 -7.02,2.52 -10.53,2.52 l -5.76,0 0,-45.81"
         style="font-size:90px;font-variant:normal;font-weight:bold;font-stretch:normal;text-align:center;line-height:86.00000142999998332%;text-anchor:middle;font-family:Inconsolata;-inkscape-font-specification:Inconsolata Bold;fill:#ffffff;fill-opacity:1"
         id="path3792" />
      <path
         d="m 280.28502,442.72858 0,5.31 10.35,0 0,45.63 -10.98,0 0,5.22 28.98,0 0,-5.13 -11.7,0 0,-45.72 11.07,0 0,-5.31 -27.72,0"
         style="font-size:90px;font-variant:normal;font-weight:bold;font-stretch:normal;text-align:center;line-height:86.00000142999998332%;text-anchor:middle;font-family:Inconsolata;-inkscape-font-specification:Inconsolata Bold;fill:#ffffff;fill-opacity:1"
         id="path3794" />
      <path
         d="m 356.42502,449.47858 c -3.78,-4.58999 -9.36001,-7.02 -15.48,-7.02 -10.16999,0 -17.1,6.66001 -17.1,14.4 0,3.24 1.26001,7.47001 5.94,10.89 5.22,3.87 13.32,5.76001 17.55,8.46 3.69,2.25 4.68,5.22001 4.68,7.74 0,4.86 -4.14001,10.17 -12.24,10.17 -6.11999,0 -10.89,-3.06 -13.41,-6.21 -0.27,-0.36 -0.27,-0.54 -0.27,-0.9 0,-0.18 0,-0.72 -0.36,-0.9 l -3.78,6.48 c 4.41,4.77 10.71001,7.2 17.64,7.2 13.67999,0 18.72,-9.18 18.72,-16.2 0,-2.96999 -0.9,-6.84 -4.41,-10.17 -4.85999,-4.58999 -12.78,-6.21 -17.91,-9.18 -4.67999,-2.78999 -5.67,-6.12 -5.67,-8.37 0,-4.31999 3.69001,-8.19 10.08,-8.19 5.22,0 9.27,2.34001 11.43,5.49 0.27,0.36 0.18,0.54 0.18,0.9 0,0.54 0.27,0.72 0.45,0.72 l 3.96,-5.31"
         style="font-size:90px;font-variant:normal;font-weight:bold;font-stretch:normal;text-align:center;line-height:86.00000142999998332%;text-anchor:middle;font-family:Inconsolata;-inkscape-font-specification:Inconsolata Bold;fill:#ffffff;fill-opacity:1"
         id="path3796" />
      <path
         d="m 387.29502,442.27858 c -8.72999,0 -21.33,6.39003 -21.33,28.89 0,21.59998 12.06001,28.62 21.33,28.62 6.65999,0 12.87,-3.51 16.38,-9.27 l -4.59,-2.97 c -2.61,4.23 -7.11,6.75 -11.43,6.75 -8.27999,0 -15.57,-8.55001 -15.57,-23.76 0,-14.84998 7.11001,-23.22 15.03,-23.22 4.32,0 8.46,2.61001 10.71,6.57 0.18,0.27 0.36,0.54 0.36,0.9 0,0.27 -0.09,0.45 -0.09,0.72 0,0.09 0,0.54 0.45,0.81 l 5.94,-2.88 c -2.97,-6.74999 -9.72001,-11.16 -17.19,-11.16"
         style="font-size:90px;font-variant:normal;font-weight:bold;font-stretch:normal;text-align:center;line-height:86.00000142999998332%;text-anchor:middle;font-family:Inconsolata;-inkscape-font-specification:Inconsolata Bold;fill:#ffffff;fill-opacity:1"
         id="path3798" />
      <path
         d="m 448.76502,478.45858 c 0,-14.21998 -9.00001,-21.6 -18.36,-21.6 -10.43999,0 -19.44,9.00002 -19.44,21.78 0,12.50999 8.91001,21.33 19.26,21.33 9.71999,0 18.54,-7.83001 18.54,-21.51 m -18.81,-16.11 c 5.93999,0 12.24,5.13002 12.24,16.38 0,10.34999 -5.94001,15.57 -11.88,15.57 -6.56999,0 -12.51,-6.12001 -12.51,-16.29 0,-10.07999 5.85001,-15.66 12.15,-15.66"
         style="font-size:90px;font-variant:normal;font-weight:bold;font-stretch:normal;text-align:center;line-height:86.00000142999998332%;text-anchor:middle;font-family:Inconsolata;-inkscape-font-specification:Inconsolata Bold;fill:#ffffff;fill-opacity:1"
         id="path3800" />
      <path
         d="m 458.48502,498.79858 6.57,0 0,-23.67 c 0,-2.69999 0.36,-4.77 2.07,-7.02 1.53,-2.06999 5.49001,-5.76 9.81,-5.76 2.07,0 4.14,0.90001 5.58,2.61 2.25,2.7 2.25,6.21001 2.25,9.09 l 0,24.75 6.39,0 0,-24.93 c 0,-3.14999 0,-6.57 -1.44,-9.9 -2.07,-4.58999 -6.3,-7.2 -10.98,-7.2 -5.57999,0 -10.62,3.60001 -13.68,8.19 l 0,-7.2 -6.57,0 0,41.04"
         style="font-size:90px;font-variant:normal;font-weight:bold;font-stretch:normal;text-align:center;line-height:86.00000142999998332%;text-anchor:middle;font-family:Inconsolata;-inkscape-font-specification:Inconsolata Bold;fill:#ffffff;fill-opacity:1"
         id="path3802" />
      <path
         d="m 528.23502,438.49858 c -5.75999,0 -11.16,2.43001 -14.04,7.11 -2.16,3.42 -2.25,6.84001 -2.25,10.53 l 0,4.05 -9,0 0,5.13 9,0 0,33.48 6.21,0 0,-33.48 13.41,0 0,-5.13 -13.41,0 0,-3.24 c 0,-2.96999 -0.09,-6.12 1.44,-8.82 1.71,-3.05999 4.95,-4.59 8.28,-4.59 3.96,0 7.29,2.07001 9,4.68 0.27,0.45 0.27,0.72 0.27,1.08 0,0.63 0.45,0.81 0.72,0.81 l 2.97,-6.03 c -2.97,-3.50999 -7.47,-5.58 -12.6,-5.58"
         style="font-size:90px;font-variant:normal;font-weight:bold;font-stretch:normal;text-align:center;line-height:86.00000142999998332%;text-anchor:middle;font-family:Inconsolata;-inkscape-font-specification:Inconsolata Bold;fill:#ffffff;fill-opacity:1"
         id="path3804" />
      <path
         d="m 190.91503,538.31131 8.415,6.765 c 0.99,-1.485 0.495,-2.475 1.485,-3.795 2.475,-3.79499 8.58001,-9.405 17.49,-9.405 11.05499,0 19.8,8.41501 19.8,19.47 0,12.53999 -10.56001,21.61501 -17.985,28.38 -11.71499,10.55999 -21.28501,21.12002 -29.865,38.115 l 0,7.26 60.39,0 0,-11.385 c -1.155,-0.495 -1.98,0.33 -2.31,0.66 -0.66,0.66 -0.99,0.66 -1.65,0.66 l -43.23,0 c 8.57999,-14.84998 20.62501,-25.08 28.05,-32.01 7.42499,-7.09499 17.985,-17.65501 17.985,-32.505 0,-16.00498 -13.03502,-28.875 -29.7,-28.875 -11.71499,0 -22.77001,6.27001 -28.875,16.665"
         style="font-size:165px;font-variant:normal;font-weight:bold;font-stretch:normal;text-align:center;line-height:86.00000142999998332%;letter-spacing:11.12999343999999979px;text-anchor:middle;font-family:Inconsolata;-inkscape-font-specification:Inconsolata Bold;fill:#ffffff;fill-opacity:1"
         id="path3806" />
      <path
         d="m 313.25502,521.64631 c -16.33498,0 -33.165,20.13004 -33.165,52.965 0,33.32997 16.99502,52.47 33.33,52.47 14.84999,0 32.505,-16.17003 32.505,-51.645 0,-34.97996 -16.83001,-53.79 -32.67,-53.79 m 16.005,23.595 -36.135,46.86 c -1.485,-5.77499 -2.31,-12.21 -2.31,-19.47 0,-26.39997 12.04501,-40.92 22.275,-40.92 5.61,0 11.71501,4.45501 16.17,13.53 m 3.795,10.89 c 1.485,5.775 2.145,12.70501 2.145,20.79 0,28.70997 -12.37501,39.6 -21.45,39.6 -6.10499,0 -12.375,-4.95001 -16.83,-14.025 l 36.135,-46.365"
         style="font-size:165px;font-variant:normal;font-weight:bold;font-stretch:normal;text-align:center;line-height:86.00000142999998332%;letter-spacing:11.12999343999999979px;text-anchor:middle;font-family:Inconsolata;-inkscape-font-specification:Inconsolata Bold;fill:#ffffff;fill-opacity:1"
         id="path3808" />
      <path
         d="m 414.80501,522.30631 -7.92,0 -26.895,14.025 2.64,6.435 20.625,-6.105 0,88.605 11.55,0 0,-102.96"
         style="font-size:165px;font-variant:normal;font-weight:bold;font-stretch:normal;text-align:center;line-height:86.00000142999998332%;letter-spacing:11.12999343999999979px;text-anchor:middle;font-family:Inconsolata;-inkscape-font-specification:Inconsolata Bold;fill:#ffffff;fill-opacity:1"
         id="path3810" />
      <path
         d="m 506.455,521.15131 c -12.37499,0 -25.57501,7.59002 -32.01,25.575 -3.465,9.73499 -4.29,21.78001 -4.29,31.68 0,12.04499 1.15501,24.91501 7.755,34.815 5.94,9.07499 15.18001,13.695 24.255,13.695 15.67499,0 29.37,-13.20002 29.37,-34.485 0,-21.28498 -13.69501,-33.66 -28.215,-33.66 -8.90999,0 -17.325,4.78501 -21.78,12.375 0.66,-35.14496 17.49001,-39.765 24.915,-39.765 6.76499,0 11.385,3.63 12.045,4.29 0.99,1.155 0.99,2.64 2.475,3.795 l 7.92,-8.91 c -5.93999,-5.93999 -14.19001,-9.405 -22.44,-9.405 m -4.29,47.85 c 8.24999,0 18.15,6.43502 18.15,24.09 0,16.00499 -8.91001,23.595 -17.655,23.595 -12.53999,0 -21.945,-14.68502 -20.625,-33.99 4.62,-8.41499 12.54001,-13.695 20.13,-13.695"
         style="font-size:165px;font-variant:normal;font-weight:bold;font-stretch:normal;text-align:center;line-height:86.00000142999998332%;letter-spacing:11.12999343999999979px;text-anchor:middle;font-family:Inconsolata;-inkscape-font-specification:Inconsolata Bold;fill:#ffffff;fill-opacity:1"
         id="path3812" />
    </g>
  </g>
</svg>
